<svg xmlns="http://www.w3.org/2000/svg" width="24" height="24" viewBox="0 0 24 24" fill="none">
  <path
    d="
      M5 6.5H18.3A2.7 2.7 0 0 1 21 9.2V14.8A2.7 2.7 0 0 1 18.3 17.5H5A2.7 2.7 0 0 1 2.3 14.8V9.2A2.7 2.7 0 0 1 5 6.5Z
      M21 10H21.7A1.3 1.3 0 0 1 23 11.3V12.7A1.3 1.3 0 0 1 21.7 14H21
      M6.5 9.2V14.8
      M9.2 9.2V14.8
      M11.9 9.2V14.8
      M16 9.8V14.8
      M13.8 12H18.2
      M14.4 10.4L17.8 13.6
      M14.4 13.6L17.8 10.4
    "
    stroke="currentColor"
    stroke-width="1.35"
    stroke-linecap="round"
    stroke-linejoin="round"
  />
</svg>
